PathFileType	4	(X/Y/Z)	/Users/itak/Documents/Research/Walk-IL/dataset/trc/00543_00009.trc
DataRate	CameraRate	NumFrames	NumMarkers	Units	OrigDataRate	OrigDataStartFrame	OrigNumFrames
100.000000	100.000000	4	53	mm	100.000000	92	741
Frame#	Time	RPSI			LPSI			L3			STRN			T10			C7			CLAV			RBAK			LBAK			LSHO			LUPA			LAEL			LAOL			LWTS			LWPS			LFRA			LIFD			LHPS			LHTS			RSHO			RUPA			RAEL			RAOL			RWTS			RWPS			RFRA			RIFD			RHTS			RHPS			RBHD			LFHD			RFHD			LBHD			LHIP			RHIP			RASI			LASI			LKNE			LTHI			LANK			LTIP			LTOE			LMT1			LMT5			LHEE			RKNE			RTHI			RANK			RTIP			RTOE			RMT1			RMT5			RHEE			
		X1	Y1	Z1	X2	Y2	Z2	X3	Y3	Z3	X4	Y4	Z4	X5	Y5	Z5	X6	Y6	Z6	X7	Y7	Z7	X8	Y8	Z8	X9	Y9	Z9	X10	Y10	Z10	X11	Y11	Z11	X12	Y12	Z12	X13	Y13	Z13	X14	Y14	Z14	X15	Y15	Z15	X16	Y16	Z16	X17	Y17	Z17	X18	Y18	Z18	X19	Y19	Z19	X20	Y20	Z20	X21	Y21	Z21	X22	Y22	Z22	X23	Y23	Z23	X24	Y24	Z24	X25	Y25	Z25	X26	Y26	Z26	X27	Y27	Z27	X28	Y28	Z28	X29	Y29	Z29	X30	Y30	Z30	X31	Y31	Z31	X32	Y32	Z32	X33	Y33	Z33	X34	Y34	Z34	X35	Y35	Z35	X36	Y36	Z36	X37	Y37	Z37	X38	Y38	Z38	X39	Y39	Z39	X40	Y40	Z40	X41	Y41	Z41	X42	Y42	Z42	X43	Y43	Z43	X44	Y44	Z44	X45	Y45	Z45	X46	Y46	Z46	X47	Y47	Z47	X48	Y48	Z48	X49	Y49	Z49	X50	Y50	Z50	X51	Y51	Z51	X52	Y52	Z52	X53	Y53	Z53	

93	0.92	-922.447998046875	1026.796875	253.9739379882812	-902.7183837890625	1029.216796875	121.9318161010742	-907.3999633789062	1111.7861328125	183.0382080078125	-674.5328979492188	1305.466918945312	199.6645050048828	-918.3407592773438	1238.102172851562	182.2488098144531	-880.1190795898438	1510.847900390625	197.5421447753906	-697.1484985351562	1418.151611328125	198.8213043212891	-950.840576171875	1383.1318359375	277.8424072265625	-905.3331909179688	1458.44384765625	102.2969665527344	-801.9837036132812	1491.306640625	31.27091598510742	-800.9845581054688	1367.788818359375	-54.12282180786133	-767.6094970703125	1145.808471679688	-70.92105102539062	-862.4365234375	1134.573364257812	-36.9550666809082	-674.8650512695312	907.603759765625	-3.91506552696228	-704.30810546875	881.76416015625	-81.66849517822266	-740.1498413085938	1060.250732421875	-72.22653961181641	-669.1998291015625	737.0686645507812	-4.048855781555176	-694.7001953125	822.3543090820312	-70.54853057861328	-652.0046997070312	831.0184936523438	-18.29037666320801	-830.4505004882812	1478.561889648438	355.2413635253906	-852.6728515625	1414.61328125	422.71728515625	-851.2254028320312	1126.954711914062	475.0098266601562	-904.6168823242188	1108.76416015625	446.8864440917969	-715.9955444335938	906.11572265625	442.0035400390625	-761.4873046875	887.1594848632812	507.8626403808594	-840.4842529296875	1071.807495117188	484.4964294433594	-701.4288940429688	732.6917724609375	455.1568298339844	-686.8133544921875	815.9380493164062	460.3637084960938	-744.4153442382812	812.7162475585938	507.7557983398438	-826.9022216796875	1685.905395507812	269.9429626464844	-669.3365478515625	1728.958740234375	141.3909606933594	-693.4617309570312	1726.38671875	283.4640502929688	-792.3794555664062	1688.293334960938	107.589111328125	-765.709228515625	942.6878662109375	6.052917003631592	-817.8976440429688	948.7759399414062	388.3003540039062	-724.1825561523438	973.2359619140625	340.82177734375	-692.3922119140625	965.3942260742188	66.84716033935547	-767.6235961914062	494.9372253417969	68.63722991943359	-756.4092407226562	660.5488891601562	30.28918075561523	-842.5492553710938	33.41429901123047	76.87610626220703	-829.2252197265625	251.369384765625	61.53759765625	-638.1585693359375	38.74012756347656	150.2570648193359	-713.3438720703125	40.91822814941406	179.9134979248047	-719.8195190429688	35.50347900390625	71.47188568115234	-916.1934814453125	34.69341278076172	125.9207992553711	-801.3798828125	500.794921875	363.4622192382812	-786.5319213867188	792.663818359375	395.2296752929688	-882.7525634765625	37.00548553466797	355.2757568359375	-802.7719116210938	358.6154174804688	357.2681884765625	-659.3823852539062	38.94138336181641	358.1306762695312	-713.557373046875	38.8415412902832	304.998779296875	-756.7169799804688	36.75992584228516	401.483642578125	-926.170166015625	28.88013458251953	291.7528991699219	
94	0.93	-922.2907104492188	1026.80419921875	253.3988800048828	-902.6141967773438	1029.227661132812	121.3421249389648	-907.2456665039062	1111.885375976562	182.4394378662109	-674.2247314453125	1305.44580078125	199.0432586669922	-918.0825805664062	1238.183715820312	181.6956787109375	-879.7503051757812	1510.904663085938	196.9877166748047	-696.7440795898438	1418.132934570312	198.2404327392578	-950.4982299804688	1383.195922851562	277.3209228515625	-904.9619140625	1458.56298828125	101.7478866577148	-801.6448974609375	1491.391357421875	30.69918251037598	-800.8400268554688	1367.921752929688	-54.7655029296875	-767.9788208007812	1145.969970703125	-71.88832092285156	-862.733154296875	1134.811767578125	-37.6055793762207	-675.3885498046875	907.580322265625	-5.339590549468994	-705.0925903320312	881.82275390625	-83.05003356933594	-740.6636962890625	1060.342163085938	-73.31550598144531	-669.9171752929688	736.968505859375	-5.613407611846924	-695.55810546875	822.3905639648438	-71.96951293945312	-652.5682983398438	831.0325927734375	-19.88886833190918	-830.052001953125	1478.558715820312	354.6712341308594	-852.267822265625	1414.642578125	422.1759338378906	-850.9221801757812	1127.017822265625	474.5283203125	-904.3472290039062	1108.868041992188	446.4331970214844	-715.8772583007812	906.103515625	441.5976257324219	-761.3560180664062	887.1748046875	507.4656677246094	-840.1888427734375	1071.891723632812	484.0267639160156	-701.3015747070312	732.6284790039062	454.7336730957031	-686.5917358398438	815.920166015625	460.0447082519531	-744.2952880859375	812.771484375	507.3153381347656	-826.56201171875	1685.827880859375	269.4315490722656	-669.0176391601562	1729.020751953125	140.8971405029297	-693.1358032226562	1726.446044921875	282.8994140625	-792.015380859375	1688.2587890625	107.0880966186523	-765.3191528320312	942.4893188476562	5.683187007904053	-817.7225341796875	948.80419921875	387.7573852539062	-724.0405883789062	973.2401733398438	340.2077026367188	-692.2926635742188	965.3416137695312	66.27291107177734	-767.5399169921875	494.9091796875	68.29518890380859	-756.4215087890625	660.519775390625	29.84220695495605	-842.5521850585938	33.42477416992188	76.86434173583984	-829.1804809570312	251.3224029541016	61.46065521240234	-638.1777954101562	38.74592971801758	150.2465209960938	-713.3207397460938	40.93805694580078	179.9342651367188	-719.8185424804688	35.50208282470703	71.47313690185547	-916.1998901367188	34.68375015258789	125.9151611328125	-801.2686767578125	500.7992248535156	363.1099243164062	-786.4837646484375	792.6820678710938	394.7723083496094	-882.7572021484375	37.01055145263672	355.2790222167969	-802.6651000976562	358.6307067871094	356.9936828613281	-659.3792724609375	38.92075729370117	358.1338195800781	-713.5598754882812	38.83707427978516	304.9954833984375	-756.7078247070312	36.7645263671875	401.4760437011719	-926.1702880859375	28.87844657897949	291.7534790039062	
95	0.9400000000000001	-922.1210327148438	1026.798706054688	252.8057708740234	-902.5037841796875	1029.222045898438	120.7216720581055	-907.0869140625	1111.980712890625	181.8076629638672	-673.8932495117188	1305.42236328125	198.3904266357422	-917.80615234375	1238.27099609375	181.1090698242188	-879.3711547851562	1510.96142578125	196.4168243408203	-696.3245239257812	1418.110595703125	197.6246185302734	-950.1437377929688	1383.263793945312	276.7773132324219	-904.5785522460938	1458.681518554688	101.1862030029297	-801.2920532226562	1491.475830078125	30.10359573364258	-800.6944580078125	1368.053588867188	-55.4375	-768.3901977539062	1146.13330078125	-72.89066314697266	-863.0524291992188	1135.064575195312	-38.27614212036133	-675.9688110351562	907.5204467773438	-6.794408798217773	-705.89697265625	881.8807373046875	-84.47521209716797	-741.2030639648438	1060.452758789062	-74.451904296875	-670.6281127929688	736.9171142578125	-7.230398178100586	-696.4586181640625	822.429443359375	-73.42844390869141	-653.163818359375	831.0419311523438	-21.54640579223633	-829.6353149414062	1478.570556640625	354.073486328125	-851.8455810546875	1414.679565429688	421.6119995117188	-850.6012573242188	1127.076416015625	474.0196838378906	-904.062255859375	1108.969970703125	445.9556884765625	-715.7168579101562	906.0845336914062	441.170654296875	-761.2074584960938	887.1937866210938	507.048828125	-839.883056640625	1071.982055664062	483.5495910644531	-701.1824340820312	732.55517578125	454.2996520996094	-686.3912353515625	815.8828125	459.7009582519531	-744.1742553710938	812.8348999023438	506.8642272949219	-826.2061157226562	1685.736328125	268.8971862792969	-668.6837158203125	1729.082153320312	140.3899841308594	-692.764892578125	1726.519653320312	282.307373046875	-791.6245727539062	1688.212280273438	106.5752487182617	-765.0215454101562	942.3468627929688	5.268111705780029	-817.5234985351562	948.8403930664062	387.1936645507812	-723.869140625	973.25244140625	339.551513671875	-692.1078491210938	965.3224487304688	65.64698028564453	-767.4750366210938	494.8825073242188	67.93947601318359	-756.4278564453125	660.4434814453125	29.37266159057617	-842.5534057617188	33.42345428466797	76.85879516601562	-829.1402587890625	251.2680816650391	61.39057922363281	-638.1956176757812	38.75105667114258	150.2355194091797	-713.2924194335938	40.96625518798828	179.9628753662109	-719.8184814453125	35.49903869628906	71.47185516357422	-916.2046508789062	34.66965103149414	125.9044876098633	-801.1416625976562	500.8044738769531	362.7552185058594	-786.3898315429688	792.7048950195312	394.2660217285156	-882.7628173828125	37.01516342163086	355.2828674316406	-802.568359375	358.6528015136719	356.7242736816406	-659.3801879882812	38.90547943115234	358.1363830566406	-713.5623779296875	38.83394241333008	304.9931945800781	-756.7032470703125	36.76980972290039	401.4700927734375	-926.1702270507812	28.87553405761719	291.7544860839844	
96	0.9500000000000001	-921.9346923828125	1026.783447265625	252.1912536621094	-902.381103515625	1029.200561523438	120.0691375732422	-906.9313354492188	1112.071044921875	181.1537780761719	-673.5460205078125	1305.396728515625	197.7074127197266	-917.5112915039062	1238.361572265625	180.4876098632812	-878.9816284179688	1511.018798828125	195.8300933837891	-695.8853759765625	1418.083740234375	196.9768981933594	-949.7767944335938	1383.336303710938	276.2108764648438	-904.1871948242188	1458.795166015625	100.6125106811523	-800.926513671875	1491.558837890625	29.48378372192383	-800.5447998046875	1368.182250976562	-56.13919830322266	-768.8355102539062	1146.295776367188	-73.92494964599609	-863.3890991210938	1135.331176757812	-38.97512054443359	-676.5869750976562	907.4351196289062	-8.288359642028809	-706.72119140625	881.93701171875	-85.94126892089844	-741.7669677734375	1060.575561523438	-75.63202667236328	-671.3701782226562	736.9014892578125	-8.876176834106445	-697.39697265625	822.4702758789062	-74.92654418945312	-653.8062133789062	831.0266723632812	-23.24703788757324	-829.196044921875	1478.602661132812	353.45166015625	-851.4027099609375	1414.726196289062	421.0238342285156	-850.2691650390625	1127.133178710938	473.4895935058594	-903.7628784179688	1109.069091796875	445.4544982910156	-715.514404296875	906.0632934570312	440.7181091308594	-761.0367431640625	887.2164306640625	506.6061401367188	-839.5711059570312	1072.078979492188	483.0687561035156	-701.0797729492188	732.4779663085938	453.8589477539062	-686.2177734375	815.8328857421875	459.3183288574219	-744.052490234375	812.90380859375	506.4064331054688	-825.8360595703125	1685.633056640625	268.3420715332031	-668.341064453125	1729.142700195312	139.8639526367188	-692.353515625	1726.601196289062	281.6913146972656	-791.2103881835938	1688.158081054688	106.047737121582	-764.7943725585938	942.2514038085938	4.790112972259521	-817.3109130859375	948.8827514648438	386.6153564453125	-723.6830444335938	973.2733764648438	338.8663330078125	-691.8668212890625	965.3222045898438	64.98533630371094	-767.4224853515625	494.8546752929688	67.57666015625	-756.409912109375	660.3255615234375	28.87848281860352	-842.55322265625	33.41147994995117	76.85757446289062	-829.1002807617188	251.204345703125	61.32194900512695	-638.2130126953125	38.75550079345703	150.2243804931641	-713.2615356445312	41.00540924072266	179.9980316162109	-719.8162841796875	35.49632263183594	71.46607208251953	-916.207275390625	34.65130233764648	125.8886947631836	-801.0092163085938	500.81298828125	362.4015808105469	-786.2385864257812	792.730712890625	393.7007751464844	-882.7685546875	37.01966857910156	355.2870483398438	-802.4783935546875	358.6819458007812	356.4574890136719	-659.388427734375	38.89880752563477	358.1398315429688	-713.565185546875	38.83158874511719	304.9923400878906	-756.706298828125	36.77625274658203	401.4674682617188	-926.170166015625	28.87080383300781	291.7560119628906	
